# xmcd CD database file
#
# Track frame offsets:
#	150
#	16459
#	38384
#	60588
#	82738
#	108156
#	126775
#	146052
#	158628
#	173277
#	186188
#	205309
#	217656
#	232521
#	250566
#	263735
#	276201
#	287744
#	301877
#	315913
#	329434
#
# Disc length: 4567 seconds
#
# Revision: 0
# Processed by: cddbd v1.5.2PL0 Copyright (c) Steve Scherf et al.
# Submitted via: CDex 1.51
#
DISCID=0311d515
DTITLE=Various Artist - Collection Fnac 60 Ans - Blues-Jazz - CD3 - 
DYEAR=2014
DGENRE=Blues
TTITLE0=Kenny_Wayne_Shepherd_Band - Oh_Well
TTITLE1=John_Campbell - Down_In_The_Hole
TTITLE2=Lucky Peterson - Who s Been Talkin
TTITLE3=Paul Personne - Le Bourdon
TTITLE4=The Jeff Healey Band - Blue Jean Blues
TTITLE5=Robben_Ford - Talk_To_Your_Daughter
TTITLE6=The Robert Cray_Right Next Door Because Of Me
TTITLE7=Stevie Ray Vaughan - Mary Had a Little Lamb
TTITLE8=Gary Moore, Phil Lynott - Parisian Walkways
TTITLE9=JJ Cale - Cocaïne
TTITLE10=The Allman Brothers Band - Statesboro Blues (Live At Filmore East)
TTITLE11=Johnny Winter - Johnny B. Goode
TTITLE12=Freddie King - Going Down
TTITLE13=BB King - The Thrill Is Gone
TTITLE14=Muddy Waters - Mannish Boy
TTITLE15=I Suffer With The Blues
TTITLE16=John Lee Hooker - Boom Boom
TTITLE17=Sonny Boy Williamson_Help Me
TTITLE18=Howlin' Wolf - Smokestack Lightnin'
TTITLE19=Bo Diddley_I'm A Man
TTITLE20=Elmore James - Dust My Broom
EXTD=YEAR: 2014
EXTT0=
EXTT1=
EXTT2=
EXTT3=
EXTT4=
EXTT5=
EXTT6=
EXTT7=
EXTT8=
EXTT9=
EXTT10=
EXTT11=
EXTT12=
EXTT13=
EXTT14=
EXTT15=
EXTT16=
EXTT17=
EXTT18=
EXTT19=
EXTT20=
PLAYORDER=
